<?xml version="1.0" standalone="no"?><!DOCTYPE svg PUBLIC "-//W3C//DTD SVG 1.1//EN" "http://www.w3.org/Graphics/SVG/1.1/DTD/svg11.dtd"><svg t="1600083217334" class="icon" viewBox="0 0 1024 1024" version="1.1" xmlns="http://www.w3.org/2000/svg" p-id="3047" xmlns:xlink="http://www.w3.org/1999/xlink" width="200" height="200"><defs><style type="text/css"></style></defs><path d="M505.95 498.39m-246.19 0a246.19 246.19 0 1 0 492.38 0 246.19 246.19 0 1 0-492.38 0Z" fill="#00ccff" p-id="3048"></path><path d="M268.59 490.28c-47.08 0-93.82-22.88-138.94-67.99-45.12-45.12-67.99-91.86-67.99-138.94s22.88-93.82 67.99-138.94c45.12-45.12 91.86-67.99 138.94-67.99s93.82 22.88 138.94 67.99c45.12 45.12 67.99 91.86 67.99 138.94s-22.88 93.82-67.99 138.94c-45.12 45.11-91.86 67.99-138.94 67.99z m0-365.17c-33.69 0-68.86 18.08-104.51 53.73-35.65 35.65-53.73 70.81-53.73 104.51 0 33.69 18.08 68.85 53.73 104.51 35.65 35.65 70.82 53.73 104.51 53.73 33.69 0 68.85-18.08 104.51-53.73 35.65-35.65 53.73-70.81 53.73-104.51s-18.08-68.85-53.73-104.51-70.82-53.73-104.51-53.73zM739.25 490.28c-47.08 0-93.82-22.88-138.94-67.99-45.12-45.12-67.99-91.86-67.99-138.94s22.88-93.82 67.99-138.94c45.12-45.12 91.86-67.99 138.94-67.99s93.82 22.88 138.94 67.99c45.12 45.12 67.99 91.86 67.99 138.94s-22.88 93.82-67.99 138.94c-45.12 45.11-91.87 67.99-138.94 67.99z m0-365.17c-33.69 0-68.86 18.08-104.51 53.73-35.65 35.65-53.73 70.81-53.73 104.51 0 33.69 18.08 68.85 53.73 104.51 35.65 35.65 70.82 53.73 104.51 53.73 33.69 0 68.85-18.08 104.51-53.73 35.65-35.65 53.73-70.81 53.73-104.51s-18.08-68.85-53.73-104.51-70.82-53.73-104.51-53.73zM268.59 952.82c-47.08 0-93.82-22.88-138.94-67.99-45.12-45.12-67.99-91.86-67.99-138.94s22.88-93.82 67.99-138.94c45.12-45.12 91.86-67.99 138.94-67.99s93.82 22.88 138.94 67.99c45.12 45.12 67.99 91.86 67.99 138.94s-22.88 93.82-67.99 138.94c-45.12 45.11-91.86 67.99-138.94 67.99z m0-365.17c-33.69 0-68.86 18.08-104.51 53.73-35.65 35.65-53.73 70.82-53.73 104.51 0 33.69 18.08 68.85 53.73 104.51 35.65 35.65 70.82 53.73 104.51 53.73 33.69 0 68.85-18.08 104.51-53.73 35.65-35.65 53.73-70.82 53.73-104.51 0-33.69-18.08-68.86-53.73-104.51-35.65-35.65-70.82-53.73-104.51-53.73zM739.25 952.82c-47.08 0-93.82-22.88-138.94-67.99-45.12-45.12-67.99-91.86-67.99-138.94s22.88-93.82 67.99-138.94c45.12-45.12 91.86-67.99 138.94-67.99s93.82 22.88 138.94 67.99c45.12 45.12 67.99 91.86 67.99 138.94s-22.88 93.82-67.99 138.94c-45.12 45.11-91.87 67.99-138.94 67.99z m0-365.17c-33.69 0-68.86 18.08-104.51 53.73-35.65 35.65-53.73 70.82-53.73 104.51 0 33.69 18.08 68.85 53.73 104.51 35.65 35.65 70.82 53.73 104.51 53.73 33.69 0 68.85-18.08 104.51-53.73 35.65-35.65 53.73-70.82 53.73-104.51 0-33.69-18.08-68.86-53.73-104.51-35.66-35.65-70.82-53.73-104.51-53.73z" fill="#00ccff" p-id="3049"></path></svg>