<?xml version="1.0" standalone="no"?><!DOCTYPE svg PUBLIC "-//W3C//DTD SVG 1.1//EN" "http://www.w3.org/Graphics/SVG/1.1/DTD/svg11.dtd"><svg t="1600075517863" class="icon" viewBox="0 0 1024 1024" version="1.1" xmlns="http://www.w3.org/2000/svg" p-id="1559" xmlns:xlink="http://www.w3.org/1999/xlink" width="200" height="200"><defs><style type="text/css"></style></defs><path d="M503.76 605.16m-208.2 0a208.2 208.2 0 1 0 416.4 0 208.2 208.2 0 1 0-416.4 0Z" fill="#F4E43E" p-id="1560"></path><path d="M68.8 426.42c-8.88-12.68-5.8-30.16 6.88-39.05L489.06 97.93c12.68-8.88 30.16-5.8 39.05 6.88 8.88 12.68 5.8 30.16-6.88 39.05L107.85 433.31c-12.68 8.88-30.17 5.79-39.05-6.89z" fill="#666666" p-id="1561"></path><path d="M953.8 426.42c8.88-12.68 5.8-30.16-6.88-39.05L533.54 97.93c-12.68-8.88-30.16-5.8-39.05 6.88-8.88 12.68-5.8 30.16 6.88 39.05l413.38 289.45c12.69 8.88 30.17 5.79 39.05-6.89zM404.99 901.25H195.73c-39.29 0-71.26-30.89-71.26-68.87V491.77h48.92v340.61c0 11 10.02 19.95 22.34 19.95h209.26v48.92z" fill="#666666" p-id="1562"></path><path d="M596.13 897.81v-45.78c11.84 0 21.47-9.63 21.47-21.47V605.28c0-11.84-9.63-21.47-21.47-21.47H419.44c-11.84 0-21.47 9.63-21.47 21.47v225.28c0 11.84 9.63 21.47 21.47 21.47v45.78c-37.08 0-67.25-30.17-67.25-67.25V605.28c0-37.08 30.17-67.25 67.25-67.25h176.69c37.08 0 67.25 30.17 67.25 67.25v225.28c0 37.08-30.17 67.25-67.25 67.25z" fill="#666666" p-id="1563"></path><path d="M825.08 900.02H615.83V851.1h209.26c12.32 0 22.34-8.95 22.34-19.95V490.54h48.92v340.61c-0.01 37.98-31.97 68.87-71.27 68.87z" fill="#666666" p-id="1564"></path><path d="M148.93 491.77m-24.3 0a24.3 24.3 0 1 0 48.6 0 24.3 24.3 0 1 0-48.6 0Z" fill="#666666" p-id="1565"></path><path d="M872.25 491.77m-24.3 0a24.3 24.3 0 1 0 48.6 0 24.3 24.3 0 1 0-48.6 0Z" fill="#666666" p-id="1566"></path><path d="M408.61 901.09h-130.6c-13.42 0-24.3-10.88-24.3-24.3s10.88-24.3 24.3-24.3h130.6c13.42 0 24.3 10.88 24.3 24.3s-10.88 24.3-24.3 24.3zM718.42 901.09h-130.6c-13.42 0-24.3-10.88-24.3-24.3s10.88-24.3 24.3-24.3h130.6c13.42 0 24.3 10.88 24.3 24.3s-10.88 24.3-24.3 24.3z" fill="#666666" p-id="1567"></path></svg>