<?xml version="1.0" standalone="no"?><!DOCTYPE svg PUBLIC "-//W3C//DTD SVG 1.1//EN" "http://www.w3.org/Graphics/SVG/1.1/DTD/svg11.dtd"><svg t="1600075621272" class="icon" viewBox="0 0 1024 1024" version="1.1" xmlns="http://www.w3.org/2000/svg" p-id="2199" xmlns:xlink="http://www.w3.org/1999/xlink" width="200" height="200"><defs><style type="text/css"></style></defs><path d="M520.24 666.82m-252.42 0a252.42 252.42 0 1 0 504.84 0 252.42 252.42 0 1 0-504.84 0Z" fill="#F4E428" p-id="2200"></path><path d="M516.08 518.09c-58.9 0-114.27-22.93-155.91-64.58-41.65-41.64-64.58-97.01-64.58-155.91s22.93-114.27 64.58-155.91c41.64-41.65 97.01-64.58 155.91-64.58s114.27 22.93 155.91 64.58c41.65 41.65 64.58 97.02 64.58 155.91s-22.93 114.27-64.58 155.91c-41.64 41.64-97.01 64.58-155.91 64.58z m0-391.06c-94.05 0-170.57 76.52-170.57 170.57s76.52 170.57 170.57 170.57 170.57-76.52 170.57-170.57-76.52-170.57-170.57-170.57z" fill="#666666" p-id="2201"></path><path d="M927.94 961.15h-49.92c0-225.95-163.3-409.78-364.02-409.78S149.98 735.2 149.98 961.15h-49.92c0-61.72 10.83-121.63 32.18-178.06 20.68-54.65 50.33-103.77 88.1-146 37.96-42.42 82.23-75.76 131.58-99.09 51.32-24.26 105.85-36.56 162.08-36.56s110.76 12.3 162.08 36.56c49.35 23.33 93.62 56.67 131.58 99.09 37.78 42.22 67.42 91.34 88.1 146 21.35 56.44 32.18 116.34 32.18 178.06z" fill="#666666" p-id="2202"></path><path d="M125.02 917.47h777.96v49.92H125.02z" fill="#666666" p-id="2203"></path></svg>