<?xml version="1.0" standalone="no"?><!DOCTYPE svg PUBLIC "-//W3C//DTD SVG 1.1//EN" "http://www.w3.org/Graphics/SVG/1.1/DTD/svg11.dtd"><svg t="1600075559144" class="icon" viewBox="0 0 1024 1024" version="1.1" xmlns="http://www.w3.org/2000/svg" p-id="1811" xmlns:xlink="http://www.w3.org/1999/xlink" width="200" height="200"><defs><style type="text/css"></style></defs><path d="M674.85 518.02m-226.79 0a226.79 226.79 0 1 0 453.58 0 226.79 226.79 0 1 0-453.58 0Z" fill="#F4E43E" p-id="1812"></path><path d="M689.98 723.74H397.73c-33.25 0-64.92-13.49-91.61-39.01-25.09-24-43.99-57.14-54.66-95.86-28.25-102.54-52.05-245.86-67.04-348.04-3.68-25.11-13.25-47.53-26.94-63.13-8.38-9.54-22.14-20.92-40.17-20.92H87.63v-55.06h29.67c30.15 0 59.11 14.09 81.56 39.67 20.61 23.49 34.83 55.97 40.03 91.46 14.76 100.64 38.13 241.57 65.64 341.4 15.57 56.49 53.02 94.44 93.19 94.44h292.25c34.88 0 68.6-27.84 88-72.66 56.63-130.81 95.5-229.71 112.47-285.76l-462.33 5.26-0.63-55.06 531.38-6.05-5.85 32.75c-10.83 60.64-73.69 213.32-124.52 330.73-13.58 31.37-33.12 57.69-56.5 76.1-24.67 19.46-53.04 29.74-82.01 29.74z" fill="#666666" p-id="1813"></path><path d="M334.67 854.15m-44.55 0a44.55 44.55 0 1 0 89.1 0 44.55 44.55 0 1 0-89.1 0Z" fill="#666666" p-id="1814"></path><path d="M743.69 854.15m-44.55 0a44.55 44.55 0 1 0 89.1 0 44.55 44.55 0 1 0-89.1 0Z" fill="#666666" p-id="1815"></path><path d="M421.74 289.21m-26.32 0a26.32 26.32 0 1 0 52.64 0 26.32 26.32 0 1 0-52.64 0Z" fill="#666666" p-id="1816"></path><path d="M91.68 129.25m-28.35 0a28.35 28.35 0 1 0 56.7 0 28.35 28.35 0 1 0-56.7 0Z" fill="#666666" p-id="1817"></path></svg>